<svg version="1.1" id="Layer_1" xmlns="http://www.w3.org/2000/svg" xmlns:xlink="http://www.w3.org/1999/xlink" x="0px" y="0px"
	 width="100%" viewBox="0 0 222 227" enable-background="new 0 0 222 227" xml:space="preserve">
<path fill="#050706" opacity="1.000000" stroke="none" 
	d="
M1.000000,220.000000 
	C1.000000,147.048416 1.000000,74.096832 1.000000,1.072623 
	C74.902443,1.072623 148.804977,1.072623 223.000000,1.072623 
	C223.000000,73.687302 223.000000,146.374985 222.558853,219.702667 
	C149.388626,220.359543 76.659561,220.377945 3.930487,220.376923 
	C2.953656,220.376907 1.976829,220.131088 1.000000,220.000000 
M85.235603,114.171120 
	C85.796036,115.440079 86.356476,116.709045 86.857597,118.829277 
	C86.576157,122.841606 87.255447,126.474838 91.172760,128.578812 
	C95.501030,130.903519 99.752380,130.542938 103.769798,127.780045 
	C105.396523,126.661293 106.902931,125.367584 108.957947,124.822548 
	C109.139198,125.032272 109.320457,125.241989 109.326157,126.145454 
	C108.813507,128.321625 108.661758,130.669220 107.724068,132.643494 
	C104.170906,140.124557 105.879631,143.950317 113.454857,145.640915 
	C113.969528,141.921249 114.177437,138.093628 115.094490,134.444214 
	C116.013275,130.787903 117.640022,127.309486 119.728630,123.636711 
	C122.659134,128.523956 125.301041,129.239639 129.547211,125.697083 
	C131.742432,123.865631 133.305130,121.276024 135.686722,118.712921 
	C136.113434,117.802856 136.540146,116.892792 137.231842,115.541412 
	C138.184387,111.584152 139.906189,107.604889 139.793900,103.678078 
	C139.729080,101.411522 137.100723,98.332680 134.863205,97.341087 
	C133.488525,96.731880 130.373672,99.046074 128.601883,100.663040 
	C127.255661,101.891617 126.794716,104.090248 125.224976,105.641411 
	C124.518860,99.273415 122.097710,97.091476 116.395569,97.519516 
	C116.191231,100.674957 115.988594,103.804253 115.387222,107.539551 
	C114.342583,109.425072 113.297943,111.310593 112.253304,113.196106 
	C111.750877,112.949600 111.248451,112.703094 110.746033,112.456589 
	C111.104576,111.283577 111.463120,110.110558 112.186142,108.259216 
	C113.612038,102.884323 112.271431,99.490173 107.230507,98.391533 
	C104.384705,97.771309 101.150101,98.935013 97.439560,99.467186 
	C95.419952,101.398399 93.400352,103.329613 90.649498,104.638733 
	C90.120995,103.839310 89.592484,103.039879 89.027374,101.500595 
	C90.488586,97.815399 92.381485,94.226105 93.230431,90.404884 
	C93.660400,88.469574 92.729279,85.713165 91.460281,84.059456 
	C90.087257,82.270172 87.603447,81.333260 85.878517,80.204201 
	C84.720406,84.136368 83.828331,87.644531 82.653175,91.055168 
	C80.235909,98.070740 77.667259,105.034157 74.590340,112.369171 
	C74.105316,113.597694 73.620293,114.826218 72.943321,116.443825 
	C72.943321,116.443825 72.949493,116.877632 72.074440,116.862877 
	C71.707787,113.909218 71.341133,110.955551 71.231148,107.176910 
	C71.448265,102.393570 71.824562,97.611053 71.849007,92.826729 
	C71.898262,83.183807 61.995430,75.698547 52.823166,78.693253 
	C49.342064,79.829819 46.255638,82.175194 42.426487,84.078453 
	C41.902683,84.609070 41.378876,85.139687 40.297951,85.901115 
	C40.192501,86.249825 40.087051,86.598541 39.775166,87.296738 
	C39.844048,87.717087 39.912930,88.137444 39.259899,89.175880 
	C38.844559,89.650810 38.429218,90.125740 37.357506,90.744637 
	C36.878624,91.829742 36.399738,92.914848 35.705013,94.726891 
	C38.355492,96.936745 41.005970,99.146591 43.957802,101.771767 
	C44.246323,101.389839 44.534843,101.007912 44.932335,99.937744 
	C44.916195,92.567406 50.520847,84.369278 57.378899,82.092171 
	C59.119610,81.514198 61.747173,80.166336 61.296204,84.093811 
	C61.246502,84.745926 61.196796,85.398041 61.153801,86.809723 
	C59.743950,90.206184 58.334099,93.602646 56.362465,97.077553 
	C56.242851,97.718735 56.123234,98.359924 55.996357,99.709717 
	C55.321625,101.450287 54.646893,103.190865 53.393677,105.189537 
	C53.306705,105.798424 53.219734,106.407318 52.680313,107.517563 
	C51.922287,109.385826 51.164261,111.254082 50.057888,113.794800 
	C46.912590,121.588486 46.997574,121.899223 54.094551,128.687103 
	C54.542206,128.924606 54.989857,129.162094 55.437508,129.399597 
	C55.592804,128.844101 55.748100,128.288620 55.770939,127.048042 
	C55.896671,126.365997 56.022404,125.683952 56.712696,124.906265 
	C56.758907,124.253876 56.805119,123.601479 56.829304,122.272369 
	C56.974434,121.849648 57.119560,121.426933 57.997295,120.875343 
	C61.274334,120.917809 64.551376,120.960274 67.997414,121.808510 
	C68.080742,123.174767 68.164070,124.541016 67.755386,126.199249 
	C68.110657,126.800377 68.465927,127.401512 69.012901,128.699524 
	C70.491020,133.484116 74.833939,133.846817 79.172676,135.467056 
	C79.498283,130.008530 79.796150,125.014893 80.724258,119.799713 
	C82.024254,117.793106 83.324249,115.786507 85.235603,114.171120 
M155.096283,125.726700 
	C159.753387,130.315598 160.920898,130.248474 168.363083,124.716370 
	C168.643936,125.538887 168.687943,126.648926 169.151901,126.867485 
	C172.181458,128.294647 176.620819,131.483429 178.143341,130.456177 
	C182.559219,127.476830 185.893814,122.846680 189.462784,118.700798 
	C190.181351,117.866074 190.063721,116.311516 190.607758,113.828583 
	C186.140808,118.652740 182.758804,122.305199 179.376816,125.957649 
	C179.003174,125.696686 178.629532,125.435722 178.255890,125.174751 
	C179.643753,119.878410 180.676712,114.454926 182.516159,109.320351 
	C184.480011,103.838509 187.211868,98.632362 189.595856,93.300232 
	C190.988358,90.185684 190.264694,87.841415 187.063065,86.384995 
	C185.152863,85.516037 183.269440,84.588219 181.263641,83.634384 
	C178.811234,93.813797 178.735947,104.426590 171.217865,111.350723 
	C170.780914,113.915070 170.976135,116.258118 169.969040,117.831680 
	C168.586533,119.991844 166.292816,121.568817 163.893616,122.928490 
	C163.715012,122.788193 163.536423,122.647888 163.454498,121.786354 
	C163.620926,120.852417 163.787369,119.918472 164.348801,118.411842 
	C167.770065,113.513756 167.701416,109.000954 163.142349,104.327164 
	C162.815933,102.656715 163.031830,100.090591 162.052887,99.497864 
	C159.854660,98.166862 156.719604,96.665077 154.584061,97.302795 
	C150.003860,98.670532 146.395660,101.892715 144.963394,107.544693 
	C144.630432,108.025452 144.297470,108.506218 143.274551,109.216080 
	C142.156113,112.077011 140.720612,114.859985 139.993530,117.817146 
	C138.901321,122.259300 139.488647,126.383965 144.091568,128.845001 
	C149.184052,131.567780 151.527786,127.916168 154.490097,124.789749 
	C154.654480,124.875008 154.818848,124.960258 155.096283,125.726700 
z"/>
<path fill="#EDEDED" opacity="1.000000" stroke="none" 
	d="
M1.000000,220.494736 
	C1.976829,220.131088 2.953656,220.376907 3.930487,220.376923 
	C76.659561,220.377945 149.388626,220.359543 222.558853,220.171326 
	C223.000000,222.661163 223.000000,225.322342 223.000000,227.985504 
	C149.000000,227.987518 75.000000,227.987518 1.000000,227.981277 
	C1.000000,225.646515 1.000000,223.317993 1.000000,220.494736 
z"/>
<path fill="#F0F0F0" opacity="1.000000" stroke="none" 
	d="
M163.953796,118.984535 
	C163.787369,119.918472 163.620926,120.852417 163.310928,122.408112 
	C163.574753,123.151810 163.982147,123.273750 164.389542,123.395691 
	C166.292816,121.568817 168.586533,119.991844 169.969040,117.831680 
	C170.976135,116.258118 170.780914,113.915070 171.217865,111.350723 
	C178.735947,104.426590 178.811234,93.813797 181.263641,83.634384 
	C183.269440,84.588219 185.152863,85.516037 187.063065,86.384995 
	C190.264694,87.841415 190.988358,90.185684 189.595856,93.300232 
	C187.211868,98.632362 184.480011,103.838509 182.516159,109.320351 
	C180.676712,114.454926 179.643753,119.878410 178.255890,125.174751 
	C178.629532,125.435722 179.003174,125.696686 179.376816,125.957649 
	C182.758804,122.305199 186.140808,118.652740 190.607758,113.828583 
	C190.063721,116.311516 190.181351,117.866074 189.462784,118.700798 
	C185.893814,122.846680 182.559219,127.476830 178.143341,130.456177 
	C176.620819,131.483429 172.181458,128.294647 169.151901,126.867485 
	C168.687943,126.648926 168.643936,125.538887 168.363083,124.716370 
	C160.920898,130.248474 159.753387,130.315598 155.050018,125.097153 
	C154.941299,123.936836 154.878845,123.406075 154.816391,122.875305 
	C154.623047,122.875427 154.429703,122.875549 154.236359,122.875664 
	C154.153671,123.434280 154.070984,123.992889 153.988312,124.551498 
	C151.527786,127.916168 149.184052,131.567780 144.091568,128.845001 
	C139.488647,126.383965 138.901321,122.259300 139.993530,117.817146 
	C140.720612,114.859985 142.156113,112.077011 143.943192,109.102699 
	C145.255249,108.675262 145.898666,108.361206 146.542084,108.047150 
	C146.096939,107.696701 145.651779,107.346260 145.206635,106.995811 
	C146.395660,101.892715 150.003860,98.670532 154.584061,97.302795 
	C156.719604,96.665077 159.854660,98.166862 162.052887,99.497864 
	C163.031830,100.090591 162.815933,102.656715 162.802368,104.495445 
	C161.306046,104.682823 160.149704,104.701927 158.684143,104.885605 
	C155.599228,107.372620 152.823486,109.695053 149.655365,112.025177 
	C147.248062,114.265877 145.233139,116.498894 142.749466,119.251404 
	C144.623352,119.925873 146.238174,120.507095 147.724152,121.380295 
	C146.721909,122.738213 145.848495,123.804146 144.975082,124.870087 
	C149.733551,123.132942 149.733551,123.132942 148.310303,120.670212 
	C149.689468,119.713516 150.849075,118.993027 152.254211,118.132957 
	C152.837967,117.904716 153.176178,117.816071 153.698700,118.084328 
	C155.723419,120.980568 157.250198,120.045074 159.980804,118.463303 
	C156.978073,118.025681 155.331253,117.785667 153.413086,117.214645 
	C155.445908,112.917610 157.750092,108.951584 160.371796,105.179619 
	C161.457443,107.225029 162.497528,109.015717 162.927368,110.942535 
	C163.513260,113.568832 163.633759,116.298935 163.953796,118.984535 
z"/>
<path fill="#F7F7F7" opacity="1.000000" stroke="none" 
	d="
M42.989323,83.969604 
	C46.255638,82.175194 49.342064,79.829819 52.823166,78.693253 
	C61.995430,75.698547 71.898262,83.183807 71.849007,92.826729 
	C71.824562,97.611053 71.448265,102.393570 70.780823,107.415924 
	C69.592903,106.389893 68.810257,105.148392 68.133125,103.851776 
	C67.660301,102.946388 67.331924,101.965561 66.939026,101.018433 
	C65.970024,101.622429 65.001022,102.226425 63.728313,102.886864 
	C62.656467,104.290062 61.888317,105.636818 60.679989,107.024902 
	C58.476662,106.974480 56.713509,106.882729 54.830650,106.558105 
	C54.464680,105.860634 54.218418,105.396034 53.972160,104.931435 
	C54.646893,103.190865 55.321625,101.450287 56.212860,99.155869 
	C56.594322,98.067719 56.759285,97.533417 56.924248,96.999107 
	C58.334099,93.602646 59.743950,90.206184 61.377373,86.245255 
	C61.687870,85.119949 61.774792,84.559105 61.861717,83.998268 
	C61.747173,80.166336 59.119610,81.514198 57.378899,82.092171 
	C50.520847,84.369278 44.916195,92.567406 44.571098,100.440491 
	C44.025387,101.080971 43.840916,101.218712 43.656445,101.356445 
	C41.005970,99.146591 38.355492,96.936745 36.139816,94.316475 
	C37.054371,92.804260 37.534126,91.702469 38.013878,90.600670 
	C38.429218,90.125740 38.844559,89.650810 39.631462,88.666260 
	C39.995888,87.753510 39.988743,87.350380 39.981602,86.947250 
	C40.087051,86.598541 40.192501,86.249825 40.752274,86.054108 
	C41.800838,85.461273 42.395081,84.715439 42.989323,83.969604 
M66.537247,98.217201 
	C67.291656,97.603745 68.046074,96.990288 68.800491,96.376839 
	C68.376236,95.983749 67.951973,95.590668 67.527718,95.197586 
	C67.066681,96.033829 66.605637,96.870079 66.537247,98.217201 
z"/>
<path fill="#F5F5F5" opacity="1.000000" stroke="none" 
	d="
M108.464096,124.153496 
	C106.902931,125.367584 105.396523,126.661293 103.769798,127.780045 
	C99.752380,130.542938 95.501030,130.903519 91.172760,128.578812 
	C87.255447,126.474838 86.576157,122.841606 87.233582,118.294312 
	C88.373520,114.818420 89.137466,111.877495 90.328201,108.959503 
	C91.861061,110.140579 93.487320,111.126282 93.942741,112.500122 
	C94.523796,114.252899 94.158920,116.319260 94.191399,118.669495 
	C94.148766,119.920265 93.929222,120.798409 94.121559,121.574486 
	C94.581703,123.431145 94.818039,126.401474 95.909927,126.794067 
	C97.526649,127.375389 100.377190,126.732056 101.692406,125.516899 
	C105.153976,122.318680 108.070656,118.530708 111.541420,115.105370 
	C112.638031,116.503578 113.397575,117.774040 114.157127,119.044502 
	C114.562355,119.021912 114.967583,118.999329 115.372810,118.976746 
	C115.587036,117.073265 116.032806,115.161079 115.961670,113.268333 
	C115.852615,110.366524 117.063622,108.961006 120.181335,108.902733 
	C120.632889,108.961739 120.813934,108.981972 120.976768,109.419495 
	C121.932343,111.386803 122.906128,112.936829 123.741539,114.819519 
	C122.407150,117.421921 121.211143,119.691643 119.911346,122.200592 
	C119.523865,122.877586 119.240158,123.315346 118.956467,123.753098 
	C117.640022,127.309486 116.013275,130.787903 115.094490,134.444214 
	C114.177437,138.093628 113.969528,141.921249 113.454857,145.640915 
	C105.879631,143.950317 104.170906,140.124557 107.724068,132.643494 
	C108.661758,130.669220 108.813507,128.321625 109.607895,125.550964 
	C109.882828,124.368881 109.876022,123.781288 109.869209,123.193687 
	C109.400841,123.513626 108.932472,123.833565 108.464096,124.153496 
z"/>
<path fill="#F7F7F7" opacity="1.000000" stroke="none" 
	d="
M75.160912,112.019035 
	C77.667259,105.034157 80.235909,98.070740 82.653175,91.055168 
	C83.828331,87.644531 84.720406,84.136368 85.878517,80.204201 
	C87.603447,81.333260 90.087257,82.270172 91.460281,84.059456 
	C92.729279,85.713165 93.660400,88.469574 93.230431,90.404884 
	C92.381485,94.226105 90.488586,97.815399 88.806488,102.107704 
	C87.685112,105.323982 86.784615,107.933151 85.649261,110.633270 
	C85.272644,110.814178 85.130875,110.904129 84.755432,110.799423 
	C83.957924,109.383682 83.394073,108.162598 82.368668,105.941956 
	C79.983452,110.631096 82.936768,115.222504 77.948433,117.750351 
	C76.934769,115.666191 76.047836,113.842613 75.160912,112.019035 
z"/>
<path fill="#E2E3E3" opacity="1.000000" stroke="none" 
	d="
M80.094025,120.021255 
	C79.796150,125.014893 79.498283,130.008530 79.172676,135.467056 
	C74.833939,133.846817 70.491020,133.484116 68.965164,128.068695 
	C68.694092,126.927658 68.470749,126.417465 68.247406,125.907272 
	C68.164070,124.541016 68.080742,123.174767 67.962372,120.938599 
	C67.725174,116.563042 67.523026,113.057411 67.692795,109.821472 
	C68.404953,112.332329 68.631042,114.600197 69.146133,116.800415 
	C69.331207,117.590965 70.212357,118.218552 70.775833,118.920517 
	C71.500389,118.239563 72.224945,117.558601 72.949493,116.877640 
	C72.949493,116.877632 72.943321,116.443825 73.338943,116.390991 
	C75.854385,117.565865 77.974205,118.793556 80.094025,120.021255 
z"/>
<path fill="#F5F5F5" opacity="1.000000" stroke="none" 
	d="
M98.090637,99.295151 
	C101.150101,98.935013 104.384705,97.771309 107.230507,98.391533 
	C112.271431,99.490173 113.612038,102.884323 111.693390,108.433662 
	C108.531403,108.361641 105.862160,108.115181 103.125427,107.624939 
	C102.659477,107.246460 102.261024,107.111771 101.533539,106.988815 
	C100.765114,107.021950 100.325729,107.043343 99.500397,107.034058 
	C93.849449,105.087944 99.040054,101.783783 98.090637,99.295151 
z"/>
<path fill="#090909" opacity="1.000000" stroke="none" 
	d="
M67.320877,109.551773 
	C67.523026,113.057411 67.725174,116.563042 67.877869,120.535713 
	C64.551376,120.960274 61.274334,120.917809 57.601246,120.546921 
	C57.154480,119.174950 57.103764,118.131401 57.334621,117.020142 
	C58.305161,116.902031 59.567142,116.956306 59.598289,116.785767 
	C60.192173,113.534187 60.641140,110.256134 61.120163,106.983574 
	C61.888317,105.636818 62.656467,104.290062 63.848778,103.213348 
	C65.288918,105.506187 66.304901,107.528976 67.320877,109.551773 
z"/>
<path fill="#F2F2F2" opacity="1.000000" stroke="none" 
	d="
M125.939865,105.857254 
	C126.794716,104.090248 127.255661,101.891617 128.601883,100.663040 
	C130.373672,99.046074 133.488525,96.731880 134.863205,97.341087 
	C137.100723,98.332680 139.729080,101.411522 139.793900,103.678078 
	C139.906189,107.604889 138.184387,111.584152 136.706757,115.719032 
	C135.696869,113.898270 135.212067,111.899887 134.971222,109.654900 
	C136.020676,109.022636 136.826218,108.636986 137.623978,108.255058 
	C135.594116,105.629715 133.781738,103.285637 131.187927,99.930893 
	C130.626053,102.554947 130.368622,103.757240 130.041901,105.302147 
	C129.650818,109.395950 127.452301,106.817886 126.011353,106.576294 
	C126.004631,106.335220 125.939865,105.857254 125.939865,105.857254 
z"/>
<path fill="#F2F2F2" opacity="1.000000" stroke="none" 
	d="
M119.342545,123.694901 
	C119.240158,123.315346 119.523865,122.877586 120.267700,122.273926 
	C122.836960,120.463860 124.946091,118.819702 127.367569,117.036499 
	C128.419220,115.797691 129.158524,114.697945 130.030579,113.938431 
	C131.826752,115.862099 133.490173,117.445534 135.153595,119.028961 
	C133.305130,121.276024 131.742432,123.865631 129.547211,125.697083 
	C125.301041,129.239639 122.659134,128.523956 119.342545,123.694901 
z"/>
<path fill="#F2F2F2" opacity="1.000000" stroke="none" 
	d="
M57.053047,117.087860 
	C57.103764,118.131401 57.154480,119.174950 57.234943,120.611351 
	C57.119560,121.426933 56.974434,121.849648 56.614998,122.795258 
	C56.316502,123.879395 56.232319,124.440651 56.148136,125.001907 
	C56.022404,125.683952 55.896671,126.365997 55.538498,127.541595 
	C54.860691,128.056458 54.415329,128.077774 53.969963,128.099091 
	C46.997574,121.899223 46.912590,121.588486 50.601974,113.422348 
	C53.170986,114.314072 57.233730,112.597191 57.053047,117.087860 
z"/>
<path fill="#D0D0D0" opacity="1.000000" stroke="none" 
	d="
M103.192917,107.868713 
	C105.862160,108.115181 108.531403,108.361641 111.511154,108.772827 
	C111.463120,110.110558 111.104576,111.283577 110.746033,112.456589 
	C111.248451,112.703094 111.750877,112.949600 112.253304,113.196106 
	C113.297943,111.310593 114.342583,109.425072 115.968277,107.255936 
	C117.669830,107.602867 118.790337,108.233406 119.910835,108.863953 
	C117.063622,108.961006 115.852615,110.366524 115.961670,113.268333 
	C116.032806,115.161079 115.587036,117.073265 115.372810,118.976746 
	C114.967583,118.999329 114.562355,119.021912 114.157127,119.044502 
	C113.397575,117.774040 112.638031,116.503578 111.226364,114.978531 
	C109.297417,114.497414 108.020576,114.270874 106.415009,114.069756 
	C105.430710,114.101013 104.775124,114.106850 104.088913,113.682388 
	C103.965019,112.394554 103.871765,111.536995 103.781013,110.654480 
	C103.783524,110.629524 103.751511,110.590881 103.772369,110.240189 
	C103.593124,109.215904 103.393021,108.542305 103.192917,107.868713 
z"/>
<path fill="#DFDFDF" opacity="1.000000" stroke="none" 
	d="
M120.181335,108.902733 
	C118.790337,108.233406 117.669830,107.602867 116.167633,106.952942 
	C115.988594,103.804253 116.191231,100.674957 116.395569,97.519516 
	C122.097710,97.091476 124.518860,99.273415 125.582420,105.749329 
	C125.939865,105.857254 126.004631,106.335220 125.800034,106.738937 
	C124.061951,107.762497 122.528465,108.382347 120.994987,109.002197 
	C120.813934,108.981972 120.632889,108.961739 120.181335,108.902733 
z"/>
<path fill="#BCBCBC" opacity="1.000000" stroke="none" 
	d="
M97.765099,99.381165 
	C99.040054,101.783783 93.849449,105.087944 99.554794,107.367828 
	C99.982689,108.181870 99.970230,108.631454 99.592445,109.152481 
	C98.854668,110.174896 98.482216,111.125870 98.073822,112.034424 
	C98.037888,111.992012 98.091980,112.087158 97.797615,111.902588 
	C97.339401,112.128204 97.175552,112.538399 96.995956,113.330666 
	C97.018082,114.981628 97.055954,116.250504 96.849014,117.623535 
	C95.803391,117.901947 95.002579,118.076202 94.201767,118.250458 
	C94.158920,116.319260 94.523796,114.252899 93.942741,112.500122 
	C93.487320,111.126282 91.861061,110.140579 90.407104,108.631294 
	C90.499741,107.273712 90.940247,106.267273 91.380753,105.260826 
	C93.400352,103.329613 95.419952,101.398399 97.765099,99.381165 
z"/>
<path fill="#B8B8B8" opacity="1.000000" stroke="none" 
	d="
M57.334618,117.020142 
	C57.233730,112.597191 53.170986,114.314072 50.776150,113.086121 
	C51.164261,111.254082 51.922287,109.385826 53.211826,107.241455 
	C54.145679,106.907227 54.548019,106.849098 54.950359,106.790977 
	C56.713509,106.882729 58.476662,106.974480 60.679985,107.024902 
	C60.641140,110.256134 60.192173,113.534187 59.598289,116.785767 
	C59.567142,116.956306 58.305161,116.902031 57.334618,117.020142 
z"/>
<path fill="#B8B8B8" opacity="1.000000" stroke="none" 
	d="
M80.409142,119.910477 
	C77.974205,118.793556 75.854385,117.565865 73.434921,116.196457 
	C73.620293,114.826218 74.105316,113.597694 74.875626,112.194107 
	C76.047836,113.842613 76.934769,115.666191 77.948433,117.750351 
	C82.936768,115.222504 79.983452,110.631096 82.368668,105.941956 
	C83.394073,108.162598 83.957924,109.383682 84.780930,111.042175 
	C85.040100,111.479576 85.135323,111.958351 85.043396,112.260315 
	C84.842400,112.968155 84.733322,113.374031 84.624245,113.779900 
	C83.324249,115.786507 82.024254,117.793106 80.409142,119.910477 
z"/>
<path fill="#D0D0D0" opacity="1.000000" stroke="none" 
	d="
M67.692795,109.821472 
	C66.304901,107.528976 65.288918,105.506187 64.152481,103.156906 
	C65.001022,102.226425 65.970024,101.622429 66.939026,101.018433 
	C67.331924,101.965561 67.660301,102.946388 68.133125,103.851776 
	C68.810257,105.148392 69.592903,106.389893 70.652481,107.828415 
	C71.341133,110.955551 71.707787,113.909218 72.511971,116.870255 
	C72.224945,117.558601 71.500389,118.239563 70.775833,118.920517 
	C70.212357,118.218552 69.331207,117.590965 69.146133,116.800415 
	C68.631042,114.600197 68.404953,112.332329 67.692795,109.821472 
z"/>
<path fill="#EBEBEB" opacity="1.000000" stroke="none" 
	d="
M164.151306,118.698189 
	C163.633759,116.298935 163.513260,113.568832 162.927368,110.942535 
	C162.497528,109.015717 161.457443,107.225029 160.102661,105.129196 
	C159.341782,104.830154 159.167557,104.775589 158.993347,104.721031 
	C160.149704,104.701927 161.306046,104.682823 162.666031,104.838867 
	C167.701416,109.000954 167.770065,113.513756 164.151306,118.698189 
z"/>
<path fill="#1C1D1C" opacity="1.000000" stroke="none" 
	d="
M84.929924,113.975510 
	C84.733322,113.374031 84.842400,112.968155 85.252831,112.079803 
	C85.664162,111.245651 85.774132,110.893982 85.884109,110.542320 
	C86.784615,107.933151 87.685112,105.323982 88.824791,102.477631 
	C89.592484,103.039879 90.120995,103.839310 91.015121,104.949783 
	C90.940247,106.267273 90.499741,107.273712 89.980331,108.608360 
	C89.137466,111.877495 88.373520,114.818420 87.263245,117.868675 
	C86.356476,116.709045 85.796036,115.440079 84.929924,113.975510 
z"/>
<path fill="#BCBCBC" opacity="1.000000" stroke="none" 
	d="
M135.420166,118.870941 
	C133.490173,117.445534 131.826752,115.862099 129.992950,113.739822 
	C129.822586,113.200974 130.139648,112.950142 130.470428,112.911720 
	C131.133621,111.974861 131.466034,111.076424 132.166565,110.149391 
	C133.265549,110.047691 133.996414,109.974602 134.727280,109.901505 
	C135.212067,111.899887 135.696869,113.898270 136.574249,115.939690 
	C136.540146,116.892792 136.113434,117.802856 135.420166,118.870941 
z"/>
<path fill="#F6F6F6" opacity="1.000000" stroke="none" 
	d="
M37.685692,90.672653 
	C37.534126,91.702469 37.054371,92.804260 36.247734,93.953003 
	C36.399738,92.914848 36.878624,91.829742 37.685692,90.672653 
z"/>
<path fill="#F6F6F6" opacity="1.000000" stroke="none" 
	d="
M42.707901,84.024033 
	C42.395081,84.715439 41.800838,85.461273 41.030834,85.938705 
	C41.378876,85.139687 41.902683,84.609070 42.707901,84.024033 
z"/>
<path fill="#EBEBEB" opacity="1.000000" stroke="none" 
	d="
M145.085022,107.270248 
	C145.651779,107.346260 146.096939,107.696701 146.542084,108.047150 
	C145.898666,108.361206 145.255249,108.675262 144.288177,108.988152 
	C144.297470,108.506218 144.630432,108.025452 145.085022,107.270248 
z"/>
<path fill="#090909" opacity="1.000000" stroke="none" 
	d="
M54.032257,128.393097 
	C54.415329,128.077774 54.860691,128.056458 55.604729,127.884140 
	C55.748100,128.288620 55.592804,128.844101 55.437508,129.399597 
	C54.989857,129.162094 54.542206,128.924606 54.032257,128.393097 
z"/>
<path fill="#090909" opacity="1.000000" stroke="none" 
	d="
M68.001396,126.053261 
	C68.470749,126.417465 68.694092,126.927658 68.869316,127.720245 
	C68.465927,127.401512 68.110657,126.800377 68.001396,126.053261 
z"/>
<path fill="#090909" opacity="1.000000" stroke="none" 
	d="
M61.578957,84.046036 
	C61.774792,84.559105 61.687870,85.119949 61.374016,85.865471 
	C61.196796,85.398041 61.246502,84.745926 61.578957,84.046036 
z"/>
<path fill="#090909" opacity="1.000000" stroke="none" 
	d="
M56.430416,124.954086 
	C56.232319,124.440651 56.316502,123.879395 56.626011,123.133614 
	C56.805119,123.601479 56.758907,124.253876 56.430416,124.954086 
z"/>
<path fill="#090909" opacity="1.000000" stroke="none" 
	d="
M56.643356,97.038330 
	C56.759285,97.533417 56.594322,98.067719 56.216492,98.801567 
	C56.123234,98.359924 56.242851,97.718735 56.643356,97.038330 
z"/>
<path fill="#F6F6F6" opacity="1.000000" stroke="none" 
	d="
M54.830650,106.558105 
	C54.548019,106.849098 54.145679,106.907227 53.438053,106.990776 
	C53.219734,106.407318 53.306705,105.798424 53.682915,105.060486 
	C54.218418,105.396034 54.464680,105.860634 54.830650,106.558105 
z"/>
<path fill="#F6F6F6" opacity="1.000000" stroke="none" 
	d="
M39.878384,87.121994 
	C39.988743,87.350380 39.995888,87.753510 39.992424,88.357216 
	C39.912930,88.137444 39.844048,87.717087 39.878384,87.121994 
z"/>
<path fill="#EBEBEB" opacity="1.000000" stroke="none" 
	d="
M154.239197,124.670624 
	C154.070984,123.992889 154.153671,123.434280 154.236359,122.875664 
	C154.429703,122.875549 154.623047,122.875427 154.816391,122.875305 
	C154.878845,123.406075 154.941299,123.936836 154.993469,124.756554 
	C154.818848,124.960258 154.654480,124.875008 154.239197,124.670624 
z"/>
<path fill="#F6F6F6" opacity="1.000000" stroke="none" 
	d="
M44.516609,100.784607 
	C44.534843,101.007912 44.246323,101.389839 43.807121,101.564102 
	C43.840916,101.218712 44.025387,101.080971 44.516609,100.784607 
z"/>
<path fill="#0F0F0F" opacity="1.000000" stroke="none" 
	d="
M158.684143,104.885605 
	C159.167557,104.775589 159.341782,104.830154 159.785141,104.935135 
	C157.750092,108.951584 155.445908,112.917610 153.386566,117.275055 
	C153.631424,117.666481 153.514404,117.727425 153.514404,117.727417 
	C153.176178,117.816071 152.837967,117.904716 151.804596,118.112640 
	C150.755554,116.160431 150.401657,114.088951 150.047745,112.017487 
	C152.823486,109.695053 155.599228,107.372620 158.684143,104.885605 
z"/>
<path fill="#EBEBEB" opacity="1.000000" stroke="none" 
	d="
M149.655365,112.025169 
	C150.401657,114.088951 150.755554,116.160431 151.559082,118.252228 
	C150.849075,118.993027 149.689468,119.713516 148.253815,120.719536 
	C147.977768,121.005074 147.852997,121.088318 147.852997,121.088318 
	C146.238174,120.507095 144.623352,119.925873 142.749466,119.251404 
	C145.233139,116.498894 147.248062,114.265877 149.655365,112.025169 
z"/>
<path fill="#EBEBEB" opacity="1.000000" stroke="none" 
	d="
M148.034271,120.955750 
	C149.733551,123.132942 149.733551,123.132942 144.975082,124.870087 
	C145.848495,123.804146 146.721909,122.738213 147.724152,121.380295 
	C147.852997,121.088318 147.977768,121.005074 148.034271,120.955750 
z"/>
<path fill="#EBEBEB" opacity="1.000000" stroke="none" 
	d="
M153.657928,117.606071 
	C155.331253,117.785667 156.978073,118.025681 159.980804,118.463303 
	C157.250198,120.045074 155.723419,120.980568 153.698700,118.084335 
	C153.514404,117.727425 153.631424,117.666481 153.657928,117.606071 
z"/>
<path fill="#050706" opacity="1.000000" stroke="none" 
	d="
M164.141571,123.162094 
	C163.982147,123.273750 163.574753,123.151810 163.262589,122.768730 
	C163.536423,122.647888 163.715012,122.788193 164.141571,123.162094 
z"/>
<path fill="#F6F6F6" opacity="1.000000" stroke="none" 
	d="
M66.340919,97.961761 
	C66.605637,96.870079 67.066681,96.033829 67.527718,95.197586 
	C67.951973,95.590668 68.376236,95.983749 68.800491,96.376839 
	C68.046074,96.990288 67.291656,97.603745 66.340919,97.961761 
z"/>
<path fill="#0F0F0F" opacity="1.000000" stroke="none" 
	d="
M94.191399,118.669495 
	C95.002579,118.076202 95.803391,117.901947 97.202087,117.691940 
	C99.185326,117.391151 100.570671,117.126122 102.251511,116.856567 
	C103.039719,116.543060 103.532433,116.234085 104.322510,115.928329 
	C105.327827,115.302483 106.035782,114.673416 106.743736,114.044342 
	C108.020576,114.270874 109.297417,114.497414 110.889313,114.850784 
	C108.070656,118.530708 105.153976,122.318680 101.692406,125.516899 
	C100.377190,126.732056 97.526649,127.375389 95.909927,126.794067 
	C94.818039,126.401474 94.581703,123.431145 94.121559,121.574486 
	C93.929222,120.798409 94.148766,119.920265 94.191399,118.669495 
z"/>
<path fill="#B8B8B8" opacity="1.000000" stroke="none" 
	d="
M120.976768,109.419495 
	C122.528465,108.382347 124.061951,107.762497 125.806747,106.980011 
	C127.452301,106.817886 129.650818,109.395950 130.362213,105.321808 
	C135.012421,105.947975 131.172440,107.502716 130.742661,108.916672 
	C130.321426,109.423042 130.192062,109.793419 130.134613,110.093307 
	C130.206512,110.022827 130.380951,110.123451 130.040909,110.022034 
	C127.716545,110.295982 125.345856,110.070312 124.794876,113.111923 
	C124.368904,113.673042 124.124413,114.079948 123.879929,114.486847 
	C122.906128,112.936829 121.932343,111.386803 120.976768,109.419495 
z"/>
<path fill="#1C1D1C" opacity="1.000000" stroke="none" 
	d="
M123.741547,114.819527 
	C124.124413,114.079948 124.368904,113.673042 125.003525,113.395477 
	C125.947517,114.741737 126.501366,115.958649 127.055214,117.175552 
	C124.946091,118.819702 122.836960,120.463860 120.371483,122.034691 
	C121.211143,119.691643 122.407150,117.421921 123.741547,114.819527 
z"/>
<path fill="#050706" opacity="1.000000" stroke="none" 
	d="
M108.711021,124.488022 
	C108.932472,123.833565 109.400841,123.513626 109.869209,123.193687 
	C109.876022,123.781288 109.882828,124.368881 109.695679,125.204102 
	C109.320457,125.241989 109.139198,125.032272 108.711021,124.488022 
z"/>
<path fill="#050706" opacity="1.000000" stroke="none" 
	d="
M85.649261,110.633270 
	C85.774132,110.893982 85.664162,111.245651 85.344757,111.777832 
	C85.135323,111.958351 85.040100,111.479576 85.014603,111.236832 
	C85.130875,110.904129 85.272644,110.814178 85.649261,110.633270 
z"/>
<path fill="#EBEBEB" opacity="1.000000" stroke="none" 
	d="
M101.956017,116.861092 
	C100.570671,117.126122 99.185326,117.391151 97.446899,117.587784 
	C97.055954,116.250504 97.018082,114.981628 97.324677,113.353500 
	C97.810081,112.691895 97.951027,112.389526 98.091980,112.087158 
	C98.091980,112.087158 98.037888,111.992012 98.362076,112.246811 
	C99.110092,111.361427 99.533936,110.221237 99.957779,109.081039 
	C99.970230,108.631454 99.982689,108.181870 99.940735,107.398514 
	C100.325729,107.043343 100.765114,107.021950 101.574471,107.458824 
	C101.913170,109.173302 101.881897,110.429504 101.852707,111.708588 
	C101.854790,111.731468 101.873283,111.781815 101.792068,112.201401 
	C101.792580,114.034355 101.874298,115.447723 101.956017,116.861092 
z"/>
<path fill="#A3A3A3" opacity="1.000000" stroke="none" 
	d="
M101.850632,111.685715 
	C101.881897,110.429504 101.913170,109.173302 101.903503,107.447083 
	C102.261024,107.111771 102.659477,107.246460 103.125427,107.624931 
	C103.393021,108.542305 103.593124,109.215904 103.752197,110.226273 
	C103.711166,110.563034 103.737267,110.649910 103.312973,110.941666 
	C102.577118,111.377518 102.265549,111.521622 101.918610,111.621429 
	C101.883240,111.577126 101.850632,111.685715 101.850632,111.685715 
z"/>
<path fill="#A3A3A3" opacity="1.000000" stroke="none" 
	d="
M131.034546,108.780685 
	C131.172440,107.502716 135.012421,105.947975 130.431503,104.979187 
	C130.368622,103.757240 130.626053,102.554947 131.187927,99.930893 
	C133.781738,103.285637 135.594116,105.629715 137.623978,108.255058 
	C136.826218,108.636986 136.020676,109.022636 134.971222,109.654907 
	C133.996414,109.974602 133.265549,110.047691 132.013351,110.125656 
	C131.492020,110.130524 131.183945,110.092422 131.167877,109.762062 
	C131.112732,109.214699 131.073639,108.997688 131.034546,108.780685 
z"/>
<path fill="#090909" opacity="1.000000" stroke="none" 
	d="
M127.367569,117.036499 
	C126.501366,115.958649 125.947517,114.741737 125.185020,113.241272 
	C125.345856,110.070312 127.716545,110.295982 130.257339,110.345085 
	C130.589096,111.496414 130.364380,112.223274 130.139648,112.950142 
	C130.139648,112.950142 129.822586,113.200974 129.860199,113.399582 
	C129.158524,114.697945 128.419220,115.797691 127.367569,117.036499 
z"/>
<path fill="#BCBCBC" opacity="1.000000" stroke="none" 
	d="
M102.251511,116.856567 
	C101.874298,115.447723 101.792580,114.034355 101.790680,112.163643 
	C101.870491,111.706299 101.953979,111.665726 101.953979,111.665726 
	C102.265549,111.521622 102.577118,111.377518 103.317795,110.966164 
	C103.746918,110.698914 103.778503,110.679443 103.778503,110.679443 
	C103.871765,111.536995 103.965019,112.394554 104.047180,113.981705 
	C104.032433,115.115906 104.028786,115.520508 104.025146,115.925110 
	C103.532433,116.234085 103.039719,116.543060 102.251511,116.856567 
z"/>
<path fill="#EDEDED" opacity="1.000000" stroke="none" 
	d="
M104.322510,115.928337 
	C104.028786,115.520508 104.032433,115.115906 104.077812,114.411987 
	C104.775124,114.106850 105.430710,114.101013 106.415009,114.069763 
	C106.035782,114.673416 105.327827,115.302483 104.322510,115.928337 
z"/>
<path fill="#EBEBEB" opacity="1.000000" stroke="none" 
	d="
M103.781013,110.654480 
	C103.778503,110.679443 103.746918,110.698914 103.742096,110.674408 
	C103.737267,110.649910 103.711166,110.563034 103.731339,110.576958 
	C103.751511,110.590881 103.783524,110.629524 103.781013,110.654480 
z"/>
<path fill="#0F0F0F" opacity="1.000000" stroke="none" 
	d="
M99.592453,109.152481 
	C99.533936,110.221237 99.110092,111.361427 98.398010,112.289230 
	C98.482216,111.125870 98.854668,110.174896 99.592453,109.152481 
z"/>
<path fill="#0F0F0F" opacity="1.000000" stroke="none" 
	d="
M97.797607,111.902588 
	C97.951027,112.389526 97.810081,112.691895 97.340416,112.971420 
	C97.175552,112.538399 97.339401,112.128204 97.797607,111.902588 
z"/>
<path fill="#F7F7F7" opacity="1.000000" stroke="none" 
	d="
M130.470428,112.911720 
	C130.364380,112.223274 130.589096,111.496414 130.597382,110.446503 
	C130.380951,110.123451 130.206512,110.022827 130.429306,110.301559 
	C130.829376,110.417671 131.006653,110.255051 131.183945,110.092422 
	C131.183945,110.092422 131.492020,110.130524 131.645233,110.154259 
	C131.466034,111.076424 131.133621,111.974861 130.470428,112.911720 
z"/>
<path fill="#090909" opacity="1.000000" stroke="none" 
	d="
M131.167877,109.762062 
	C131.006653,110.255051 130.829376,110.417671 130.357407,110.372040 
	C130.192062,109.793419 130.321426,109.423042 130.742661,108.916672 
	C131.073639,108.997688 131.112732,109.214699 131.167877,109.762062 
z"/>
<path fill="#D0D0D0" opacity="1.000000" stroke="none" 
	d="
M101.918610,111.621429 
	C101.953979,111.665726 101.870491,111.706299 101.871887,111.744057 
	C101.873283,111.781815 101.854790,111.731468 101.852707,111.708588 
	C101.850632,111.685715 101.883240,111.577126 101.918610,111.621429 
z"/>
</svg>